<mxfile host="app.diagrams.net" modified="2023-11-22T18:06:45.718Z" agent="Mozilla/5.0 (Windows NT 10.0; Win64; x64) AppleWebKit/537.36 (KHTML, like Gecko) Chrome/119.0.0.0 Safari/537.36 Edg/119.0.0.0" etag="uMl-wYBUNKII2P6kjYgO" version="22.1.3" type="github">
  <diagram name="Page-1" id="YAJRs8Kd-AHj2f7_PPjl">
    <mxGraphModel dx="874" dy="583" grid="1" gridSize="10" guides="1" tooltips="1" connect="1" arrows="1" fold="1" page="1" pageScale="1" pageWidth="827" pageHeight="1169" math="0" shadow="0">
      <root>
        <mxCell id="0" />
        <mxCell id="1" parent="0" />
        <mxCell id="-J2F2oCuJZLCGC7RhZ1l-1" value="BMS" style="swimlane;fontStyle=1;align=center;verticalAlign=top;childLayout=stackLayout;horizontal=1;startSize=26;horizontalStack=0;resizeParent=1;resizeParentMax=0;resizeLast=0;collapsible=1;marginBottom=0;whiteSpace=wrap;html=1;fillColor=#ffe6cc;strokeColor=#d79b00;" parent="1" vertex="1">
          <mxGeometry x="490" y="622" width="160" height="88" as="geometry" />
        </mxCell>
        <mxCell id="-J2F2oCuJZLCGC7RhZ1l-2" value="" style="text;strokeColor=#d79b00;fillColor=none;align=left;verticalAlign=top;spacingLeft=4;spacingRight=4;overflow=hidden;rotatable=0;points=[[0,0.5],[1,0.5]];portConstraint=eastwest;whiteSpace=wrap;html=1;" parent="-J2F2oCuJZLCGC7RhZ1l-1" vertex="1">
          <mxGeometry y="26" width="160" height="62" as="geometry" />
        </mxCell>
        <mxCell id="-J2F2oCuJZLCGC7RhZ1l-4" value="Motor" style="swimlane;fontStyle=1;align=center;verticalAlign=top;childLayout=stackLayout;horizontal=1;startSize=26;horizontalStack=0;resizeParent=1;resizeParentMax=0;resizeLast=0;collapsible=1;marginBottom=0;whiteSpace=wrap;html=1;fillColor=#ffe6cc;strokeColor=#d79b00;" parent="1" vertex="1">
          <mxGeometry x="720" y="622" width="160" height="86" as="geometry" />
        </mxCell>
        <mxCell id="-J2F2oCuJZLCGC7RhZ1l-5" value="" style="text;strokeColor=#d79b00;fillColor=none;align=left;verticalAlign=top;spacingLeft=4;spacingRight=4;overflow=hidden;rotatable=0;points=[[0,0.5],[1,0.5]];portConstraint=eastwest;whiteSpace=wrap;html=1;" parent="-J2F2oCuJZLCGC7RhZ1l-4" vertex="1">
          <mxGeometry y="26" width="160" height="60" as="geometry" />
        </mxCell>
        <mxCell id="-J2F2oCuJZLCGC7RhZ1l-40" value="RC-Controller" style="swimlane;fontStyle=0;childLayout=stackLayout;horizontal=1;startSize=26;fillColor=#d5e8d4;horizontalStack=0;resizeParent=1;resizeParentMax=0;resizeLast=0;collapsible=1;marginBottom=0;whiteSpace=wrap;html=1;strokeColor=#82b366;" parent="1" vertex="1">
          <mxGeometry x="750" y="440" width="170" height="66" as="geometry" />
        </mxCell>
        <mxCell id="-J2F2oCuJZLCGC7RhZ1l-56" value="Steering" style="swimlane;fontStyle=0;childLayout=stackLayout;horizontal=1;startSize=26;fillColor=#dae8fc;horizontalStack=0;resizeParent=1;resizeParentMax=0;resizeLast=0;collapsible=1;marginBottom=0;whiteSpace=wrap;html=1;strokeColor=#6c8ebf;" parent="1" vertex="1">
          <mxGeometry x="770" y="290" width="140" height="52" as="geometry" />
        </mxCell>
        <mxCell id="-J2F2oCuJZLCGC7RhZ1l-57" value="followPath(path, pos)" style="text;strokeColor=none;fillColor=none;align=left;verticalAlign=top;spacingLeft=4;spacingRight=4;overflow=hidden;rotatable=0;points=[[0,0.5],[1,0.5]];portConstraint=eastwest;whiteSpace=wrap;html=1;" parent="-J2F2oCuJZLCGC7RhZ1l-56" vertex="1">
          <mxGeometry y="26" width="140" height="26" as="geometry" />
        </mxCell>
        <mxCell id="-J2F2oCuJZLCGC7RhZ1l-64" value="Logic Layer" style="text;html=1;strokeColor=#6c8ebf;fillColor=#dae8fc;align=center;verticalAlign=middle;whiteSpace=wrap;rounded=0;" parent="1" vertex="1">
          <mxGeometry x="1211" y="400" width="60" height="30" as="geometry" />
        </mxCell>
        <mxCell id="-J2F2oCuJZLCGC7RhZ1l-65" value="Control Layer" style="text;html=1;strokeColor=#82b366;fillColor=#d5e8d4;align=center;verticalAlign=middle;whiteSpace=wrap;rounded=0;" parent="1" vertex="1">
          <mxGeometry x="1211" y="450" width="60" height="30" as="geometry" />
        </mxCell>
        <mxCell id="-J2F2oCuJZLCGC7RhZ1l-66" value="Driver Layer" style="text;html=1;strokeColor=#d79b00;fillColor=#ffe6cc;align=center;verticalAlign=middle;whiteSpace=wrap;rounded=0;" parent="1" vertex="1">
          <mxGeometry x="1211" y="500" width="60" height="30" as="geometry" />
        </mxCell>
        <mxCell id="20lhgK8qUAXbq7_y6KQg-1" value="MPU6050" style="swimlane;fontStyle=1;align=center;verticalAlign=top;childLayout=stackLayout;horizontal=1;startSize=26;horizontalStack=0;resizeParent=1;resizeParentMax=0;resizeLast=0;collapsible=1;marginBottom=0;whiteSpace=wrap;html=1;fillColor=#ffe6cc;strokeColor=#d79b00;" vertex="1" parent="1">
          <mxGeometry x="940" y="622" width="160" height="86" as="geometry" />
        </mxCell>
        <mxCell id="20lhgK8qUAXbq7_y6KQg-2" value="" style="text;strokeColor=#d79b00;fillColor=none;align=left;verticalAlign=top;spacingLeft=4;spacingRight=4;overflow=hidden;rotatable=0;points=[[0,0.5],[1,0.5]];portConstraint=eastwest;whiteSpace=wrap;html=1;" vertex="1" parent="20lhgK8qUAXbq7_y6KQg-1">
          <mxGeometry y="26" width="160" height="60" as="geometry" />
        </mxCell>
        <mxCell id="20lhgK8qUAXbq7_y6KQg-3" value="Webserver" style="swimlane;fontStyle=1;align=center;verticalAlign=top;childLayout=stackLayout;horizontal=1;startSize=26;horizontalStack=0;resizeParent=1;resizeParentMax=0;resizeLast=0;collapsible=1;marginBottom=0;whiteSpace=wrap;html=1;fillColor=#ffe6cc;strokeColor=#d79b00;" vertex="1" parent="1">
          <mxGeometry x="1150" y="622" width="160" height="86" as="geometry" />
        </mxCell>
        <mxCell id="20lhgK8qUAXbq7_y6KQg-4" value="" style="text;strokeColor=#d79b00;fillColor=none;align=left;verticalAlign=top;spacingLeft=4;spacingRight=4;overflow=hidden;rotatable=0;points=[[0,0.5],[1,0.5]];portConstraint=eastwest;whiteSpace=wrap;html=1;" vertex="1" parent="20lhgK8qUAXbq7_y6KQg-3">
          <mxGeometry y="26" width="160" height="60" as="geometry" />
        </mxCell>
      </root>
    </mxGraphModel>
  </diagram>
</mxfile>
